# xmcd
#
# Track frame offsets:
#	150
#	16568
#	38859
#	56112
#	67473
#	83777
#	96989
#	107987
#	127433
#	138433
#	148146
#	160156
#
# Disc length: 2538 seconds
# Revision: 0
# Processed by: cddbd v1.5.2PL0 Copyright (c) Steve Scherf et al.
# Submitted via: dBpowerAMP V12.0
#
DISCID=b709e80c
DTITLE=Richard Bennett - Last Train From Poor Valley
DYEAR=2012
DGENRE=Country
TTITLE0=Workin' Man Blues
TTITLE1=Last Train From Poor Valley
TTITLE2=Gentle On My Mind
TTITLE3=Roan Mountain Rag
TTITLE4=The Ballad of Jesse James
TTITLE5=Wrong Road Again
TTITLE6=I'm Thinking Tonight of My Blue Eyes
TTITLE7=Georgia On My Mind
TTITLE8=Don Quixote
TTITLE9=From the Top
TTITLE10=Handsome Molly
TTITLE11=Tennessee Waltz
EXTD=
EXTT0=
EXTT1=
EXTT2=
EXTT3=
EXTT4=
EXTT5=
EXTT6=
EXTT7=
EXTT8=
EXTT9=
EXTT10=
EXTT11=
PLAYORDER=
